;TYPE=PLATED
;Layer: PTH_Through
;EasyEDA Pro v3.2.148, 2026-07-18 09:45:12
;Gerber Generator version 0.3
M48
METRIC,LZ,0000.00000
;Hole size 1 = 0.30500 METRIC
T01C0.30500
;Hole size 2 = 0.70002 METRIC
T02C0.70002
;Hole size 3 = 0.80000 METRIC
T03C0.80000
;Hole size 4 = 0.90002 METRIC
T04C0.90002
;Hole size 5 = 0.91440 METRIC
T05C0.91440
;Hole size 6 = 1.00000 METRIC
T06C1.00000
;Hole size 7 = 1.20000 METRIC
T07C1.20000
;Hole size 8 = 1.30002 METRIC
T08C1.30002
;Hole size 9 = 1.40000 METRIC
T09C1.40000
%
G05
G90
T01
X44.57701Y-43.30701
T02
X52.578Y-39.667
X52.578Y-29.167
X42.121Y-62.865
X52.621Y-62.865
X27.897Y-51.562
X38.397Y-51.562
T03
X48.641Y-45.86679
X48.641Y-35.66721
X34.77821Y-33.782
X44.97779Y-33.782
X28.17421Y-55.88
X38.37379Y-55.88
X45.466Y-47.60521
X45.466Y-57.80479
X31.115Y-43.32679
X31.115Y-33.12721
X18.64921Y-32.512
X28.84879Y-32.512
X36.195Y-45.339
X38.735Y-45.339
X41.275Y-45.339
X43.815Y-45.339
X36.195Y-37.719
X38.735Y-37.719
X41.275Y-37.719
X43.815Y-37.719
T04
X31.75Y-45.847
X29.21Y-45.847
X41.275Y-56.95899
X41.275Y-48.95901
T05
X61.976Y-19.939
X38.481Y-26.035
X50.673Y-57.671
X50.673Y-49.771
T06
X59.309Y-23.876
X59.309Y-28.956
X34.163Y-25.527
X31.623Y-25.527
X49.10912Y-23.916
X44.10901Y-23.916
X46.609Y-28.916
T07
X68.453Y-21.11101
X68.453Y-40.61099
T08
X21.082Y-56.80837
X21.082Y-61.80963
X20.828Y-41.94937
X20.828Y-46.95063
X23.58263Y-23.749
X18.58137Y-23.749
X61.976Y-44.78398
X61.976Y-49.784
X61.976Y-54.78404
T09
X33.401Y-62.61092
X30.861Y-62.61092
X35.941Y-62.61092
M30