G04 Layer: BottomLayer*
G04 EasyEDA Pro v3.2.148, 2026-07-18 09:45:12*
G04 Gerber Generator version 0.3*
G04 Scale: 100 percent, Rotated: No, Reflected: No*
G04 Dimensions in millimeters*
G04 Leading zeros omitted, absolute positions, 4 integers and 5 decimals*
G04 Generated by one-click*
G04 Object Configs: Pad,Via,Track,Text,Image,Dimension,BoardOutline,BoardCutout,CopperFilled,SolidRegion,FPCStiffener,Line,PlaneZone,ComponentProperty,ComponentSilkscreen,TearDrop*
G04 Layer Configs: 1,2,3,4,5,6,7,8,9,10,11,13,14,56*
G04 Copper Areas: 0*
%FSLAX45Y45*%
%MOMM*%
%ADD10C,1.524*%
%ADD11C,1.7*%
%ADD12C,1.6*%
%ADD13R,1.6X1.6*%
%ADD14C,2.0*%
%ADD15O,2.0X2.49999*%
%ADD16R,2.0X2.49999*%
%ADD17C,1.4075*%
%ADD18C,1.4*%
%ADD19R,2.2X2.1*%
%ADD20C,2.2*%
%ADD21C,2.3*%
%ADD22O,1.45999X1.82499*%
%ADD23C,0.61*%
%ADD24C,0.254*%
G75*


G04 Pad Start*
G54D10*
G01X6197600Y-1993900D03*
G01X3848100Y-2603500D03*
G54D11*
G01X3175000Y-4584700D03*
G01X2921000Y-4584700D03*
G54D12*
G01X5930900Y-2387600D03*
G01X5930900Y-2895600D03*
G54D11*
G01X4127500Y-5695899D03*
G01X4127500Y-4895901D03*
G54D13*
G01X3416300Y-2552700D03*
G54D12*
G01X3162300Y-2552700D03*
G54D14*
G01X2108200Y-5680837D03*
G01X2108200Y-6180963D03*
G01X2082800Y-4194937D03*
G01X2082800Y-4695063D03*
G01X2358263Y-2374900D03*
G01X1858137Y-2374900D03*
G54D15*
G01X3340100Y-6261100D03*
G01X3086100Y-6261100D03*
G54D16*
G01X3594100Y-6261100D03*
G54D18*
G01X4864100Y-4586707D03*
G01X4864100Y-3566693D03*
G01X3477793Y-3378200D03*
G01X4497807Y-3378200D03*
G01X5257800Y-3966693D03*
G01X5257800Y-2916707D03*
G01X4212107Y-6286500D03*
G01X5262093Y-6286500D03*
G54D14*
G01X6197600Y-4478401D03*
G01X6197600Y-4978400D03*
G01X6197600Y-5478399D03*
G54D18*
G01X2817393Y-5588000D03*
G01X3837407Y-5588000D03*
G01X4546600Y-4760493D03*
G01X4546600Y-5780507D03*
G54D19*
G01X4910900Y-2391600D03*
G54D20*
G01X4410901Y-2391600D03*
G01X4660900Y-2891599D03*
G54D18*
G01X2789707Y-5156200D03*
G01X3839693Y-5156200D03*
G01X3111500Y-4332707D03*
G01X3111500Y-3312693D03*
G01X1864893Y-3251200D03*
G01X2884907Y-3251200D03*
G54D21*
G01X6845300Y-2111096D03*
G01X6845300Y-4061104D03*
G54D22*
G01X3619500Y-4533900D03*
G01X3873500Y-4533900D03*
G01X4127500Y-4533900D03*
G01X4381500Y-4533900D03*
G01X3619500Y-3771900D03*
G01X3873500Y-3771900D03*
G01X4127500Y-3771900D03*
G01X4381500Y-3771900D03*
G54D10*
G01X5067300Y-5767095D03*
G01X5067300Y-4977105D03*
G04 Pad End*

G04 Via Start*
G54D23*
G01X4457701Y-4330701D03*
G04 Via End*

G04 Track Start*
G54D24*
G01X3162304Y-2552705D02*
G01X3162304Y-2973804D01*
G01X2884904Y-3251204D01*
G01X4497811Y-3378203D02*
G01X4497811Y-3401593D01*
G01X4127502Y-3771903D01*
G01X6197598Y-4978400D02*
G01X5979688Y-4760490D01*
G01X4546601Y-4760490D01*
G01X3477793Y-3378203D02*
G01X3477793Y-4392191D01*
G01X3619503Y-4533901D01*
G01X2108196Y-6180958D02*
G01X2362195Y-6434957D01*
G01X4063652Y-6434957D01*
G01X4212111Y-6286497D01*
G01X6197598Y-4478401D02*
G01X6197598Y-4428301D01*
G01X4660901Y-2891604D01*
G01X4660901Y-2641605D01*
G01X4410901Y-2391605D01*
G01X5067300Y-4977100D02*
G01X4888200Y-5156200D01*
G01X3839692Y-5156200D01*
G01X2082796Y-4695061D02*
G01X1864886Y-4477151D01*
G01X1864886Y-3251204D01*
G01X1864886Y-2387605D01*
G01X1858136Y-2374895D01*
G01X1864886Y-2387605D02*
G01X2141396Y-2111096D01*
G01X6845296Y-2111096D01*
G01X4864100Y-4586711D02*
G01X4533901Y-4586711D01*
G01X4457701Y-4662911D01*
G01X4002512Y-4662911D01*
G01X3873502Y-4533901D01*
G01X5930898Y-2387605D02*
G01X6845296Y-3302003D01*
G01X6845296Y-4061112D01*
G01X5930898Y-2387605D02*
G01X5778498Y-2235206D01*
G01X4368801Y-2235206D01*
G01X3619503Y-2984504D01*
G01X3619503Y-3771903D01*
G01X3746503Y-3898902D01*
G01X3746503Y-4584701D01*
G01X4057702Y-4895900D01*
G01X4127502Y-4895900D01*
G01X4127502Y-4533901D02*
G01X4330701Y-4330701D01*
G01X4457701Y-4330701D01*
G01X3594103Y-6261097D02*
G01X3594103Y-4815310D01*
G01X3111504Y-4332711D01*
G01X3175004Y-4584701D02*
G01X2785244Y-4194942D01*
G01X2082796Y-4194942D01*
G01X3837412Y-5587999D02*
G01X4019602Y-5587999D01*
G01X4127502Y-5695899D01*
G01X4152902Y-5670499D01*
G01X4970700Y-5670499D01*
G01X5067300Y-5767098D01*
G01X3175004Y-4584701D02*
G01X3175004Y-5584699D01*
G01X3098804Y-5660899D01*
G01X3098804Y-6248397D02*
G01X3086104Y-6261097D01*
G01X3098804Y-5676899D02*
G01X3073404Y-5702298D01*
G01X2129656Y-5702298D01*
G01X2108196Y-5680839D01*
G01X4381501Y-4533901D02*
G01X4690591Y-4533901D01*
G01X5257799Y-3966692D01*
G01X5067300Y-5767098D02*
G01X5908898Y-5767098D01*
G01X6197598Y-5478399D01*
G01X3416303Y-2552705D02*
G01X3238493Y-2374895D01*
G01X2358255Y-2374895D01*
G01X3098804Y-5660899D02*
G01X3098804Y-5676899D01*
G01X3098804Y-6248397D01*
G04 Track End*

M02*

