G04 Layer: TopSilkscreenLayer*
G04 EasyEDA Pro v3.2.148, 2026-07-18 09:45:12*
G04 Gerber Generator version 0.3*
G04 Scale: 100 percent, Rotated: No, Reflected: No*
G04 Dimensions in millimeters*
G04 Leading zeros omitted, absolute positions, 4 integers and 5 decimals*
G04 Generated by one-click*
G04 Object Configs: Pad,Via,Track,Text,Image,Dimension,BoardOutline,BoardCutout,CopperFilled,SolidRegion,FPCStiffener,Line,PlaneZone,ComponentProperty,ComponentSilkscreen,TearDrop*
G04 Layer Configs: 1,2,3,4,5,6,7,8,9,10,11,13,14,56*
G04 Copper Areas: 0*
%FSLAX45Y45*%
%MOMM*%
%ADD10C,0.1524*%
%ADD11C,0.254*%
%ADD12C,0.2286*%
%ADD13C,0.4*%
%ADD14C,0.3*%
%ADD15C,0.7457*%
G75*


G04 Text Start*
G54D10*
G01X3260598Y-4853940D02*
G01X3263646Y-4860290D01*
G01X3269996Y-4866386D01*
G01X3276092Y-4869434D01*
G01X3288538Y-4869434D01*
G01X3294634Y-4866386D01*
G01X3300984Y-4860290D01*
G01X3304032Y-4853940D01*
G01X3307080Y-4844796D01*
G01X3307080Y-4829302D01*
G01X3304032Y-4819904D01*
G01X3300984Y-4813808D01*
G01X3294634Y-4807458D01*
G01X3288538Y-4804410D01*
G01X3276092Y-4804410D01*
G01X3269996Y-4807458D01*
G01X3263646Y-4813808D01*
G01X3260598Y-4819904D01*
G01X3230372Y-4856988D02*
G01X3224276Y-4860290D01*
G01X3215132Y-4869434D01*
G01X3215132Y-4804410D01*
G01X6535039Y-2183003D02*
G01X6541389Y-2179955D01*
G01X6547485Y-2173605D01*
G01X6550533Y-2167509D01*
G01X6550533Y-2155063D01*
G01X6547485Y-2148967D01*
G01X6541389Y-2142617D01*
G01X6535039Y-2139569D01*
G01X6525895Y-2136521D01*
G01X6510401Y-2136521D01*
G01X6501003Y-2139569D01*
G01X6494907Y-2142617D01*
G01X6488557Y-2148967D01*
G01X6485509Y-2155063D01*
G01X6485509Y-2167509D01*
G01X6488557Y-2173605D01*
G01X6494907Y-2179955D01*
G01X6501003Y-2183003D01*
G01X6550533Y-2219325D02*
G01X6550533Y-2253361D01*
G01X6525895Y-2234819D01*
G01X6525895Y-2243963D01*
G01X6522847Y-2250313D01*
G01X6519545Y-2253361D01*
G01X6510401Y-2256409D01*
G01X6504051Y-2256409D01*
G01X6494907Y-2253361D01*
G01X6488557Y-2247265D01*
G01X6485509Y-2237867D01*
G01X6485509Y-2228469D01*
G01X6488557Y-2219325D01*
G01X6491859Y-2216277D01*
G01X6497955Y-2213229D01*
G01X3821529Y-5773279D02*
G01X3886553Y-5773279D01*
G01X3821529Y-5773279D02*
G01X3821529Y-5751689D01*
G01X3824577Y-5742291D01*
G01X3830673Y-5736195D01*
G01X3837023Y-5733147D01*
G01X3846167Y-5729845D01*
G01X3861661Y-5729845D01*
G01X3871059Y-5733147D01*
G01X3877155Y-5736195D01*
G01X3883505Y-5742291D01*
G01X3886553Y-5751689D01*
G01X3886553Y-5773279D01*
G01X3833975Y-5699619D02*
G01X3830673Y-5693523D01*
G01X3821529Y-5684379D01*
G01X3886553Y-5684379D01*
G01X3548380Y-2989834D02*
G01X3548380Y-2924810D01*
G01X3548380Y-2924810D02*
G01X3511296Y-2924810D01*
G01X3481070Y-2989834D02*
G01X3481070Y-2924810D01*
G01X3481070Y-2989834D02*
G01X3440938Y-2989834D01*
G01X3481070Y-2958846D02*
G01X3456432Y-2958846D01*
G01X3481070Y-2924810D02*
G01X3440938Y-2924810D01*
G01X3410712Y-2989834D02*
G01X3410712Y-2924810D01*
G01X3410712Y-2989834D02*
G01X3389122Y-2989834D01*
G01X3379978Y-2986786D01*
G01X3373628Y-2980690D01*
G01X3370580Y-2974340D01*
G01X3367532Y-2965196D01*
G01X3367532Y-2949702D01*
G01X3370580Y-2940304D01*
G01X3373628Y-2934208D01*
G01X3379978Y-2927858D01*
G01X3389122Y-2924810D01*
G01X3410712Y-2924810D01*
G01X3337306Y-2977388D02*
G01X3331210Y-2980690D01*
G01X3322066Y-2989834D01*
G01X3322066Y-2924810D01*
G01X1723111Y-5311191D02*
G01X1723111Y-5376215D01*
G01X1723111Y-5311191D02*
G01X1751051Y-5311191D01*
G01X1760195Y-5314239D01*
G01X1763243Y-5317287D01*
G01X1766545Y-5323637D01*
G01X1766545Y-5332781D01*
G01X1763243Y-5338877D01*
G01X1760195Y-5342179D01*
G01X1751051Y-5345227D01*
G01X1723111Y-5345227D01*
G01X1796771Y-5323637D02*
G01X1802867Y-5320335D01*
G01X1812011Y-5311191D01*
G01X1812011Y-5376215D01*
G01X1697711Y-3825291D02*
G01X1697711Y-3890315D01*
G01X1697711Y-3825291D02*
G01X1725651Y-3825291D01*
G01X1734795Y-3828339D01*
G01X1737843Y-3831387D01*
G01X1741145Y-3837737D01*
G01X1741145Y-3846881D01*
G01X1737843Y-3852977D01*
G01X1734795Y-3856279D01*
G01X1725651Y-3859327D01*
G01X1697711Y-3859327D01*
G01X1774419Y-3840785D02*
G01X1774419Y-3837737D01*
G01X1777467Y-3831387D01*
G01X1780515Y-3828339D01*
G01X1786611Y-3825291D01*
G01X1799057Y-3825291D01*
G01X1805407Y-3828339D01*
G01X1808455Y-3831387D01*
G01X1811503Y-3837737D01*
G01X1811503Y-3843833D01*
G01X1808455Y-3849929D01*
G01X1802105Y-3859327D01*
G01X1771371Y-3890315D01*
G01X1814551Y-3890315D01*
G01X2727909Y-1989811D02*
G01X2662885Y-1989811D01*
G01X2727909Y-1989811D02*
G01X2727909Y-2017751D01*
G01X2724861Y-2026895D01*
G01X2721813Y-2029943D01*
G01X2715463Y-2033245D01*
G01X2706319Y-2033245D01*
G01X2700223Y-2029943D01*
G01X2696921Y-2026895D01*
G01X2693873Y-2017751D01*
G01X2693873Y-1989811D01*
G01X2727909Y-2069567D02*
G01X2727909Y-2103603D01*
G01X2703271Y-2085061D01*
G01X2703271Y-2094205D01*
G01X2700223Y-2100555D01*
G01X2696921Y-2103603D01*
G01X2687777Y-2106651D01*
G01X2681427Y-2106651D01*
G01X2672283Y-2103603D01*
G01X2665933Y-2097507D01*
G01X2662885Y-2088109D01*
G01X2662885Y-2078711D01*
G01X2665933Y-2069567D01*
G01X2669235Y-2066519D01*
G01X2675331Y-2063471D01*
G01X3969741Y-6009254D02*
G01X3966693Y-6003158D01*
G01X3960597Y-5996808D01*
G01X3954247Y-5993760D01*
G01X3945103Y-5990712D01*
G01X3929609Y-5990712D01*
G01X3920211Y-5993760D01*
G01X3914115Y-5996808D01*
G01X3907765Y-6003158D01*
G01X3904717Y-6009254D01*
G01X3904717Y-6021700D01*
G01X3907765Y-6027796D01*
G01X3914115Y-6034146D01*
G01X3920211Y-6037194D01*
G01X3929609Y-6040242D01*
G01X3945103Y-6040242D01*
G01X3954247Y-6037194D01*
G01X3960597Y-6034146D01*
G01X3966693Y-6027796D01*
G01X3969741Y-6021700D01*
G01X3969741Y-6009254D01*
G01X3917163Y-6018652D02*
G01X3898621Y-6037194D01*
G01X3957295Y-6070468D02*
G01X3960597Y-6076564D01*
G01X3969741Y-6085708D01*
G01X3904717Y-6085708D01*
G01X4609465Y-4649086D02*
G01X4674489Y-4649086D01*
G01X4609465Y-4649086D02*
G01X4609465Y-4621146D01*
G01X4612513Y-4612002D01*
G01X4615561Y-4608954D01*
G01X4621911Y-4605652D01*
G01X4628007Y-4605652D01*
G01X4634103Y-4608954D01*
G01X4637151Y-4612002D01*
G01X4640453Y-4621146D01*
G01X4640453Y-4649086D01*
G01X4640453Y-4627496D02*
G01X4674489Y-4605652D01*
G01X4621911Y-4575426D02*
G01X4618609Y-4569330D01*
G01X4609465Y-4560186D01*
G01X4674489Y-4560186D01*
G01X3415414Y-3123565D02*
G01X3415414Y-3188589D01*
G01X3415414Y-3123565D02*
G01X3443354Y-3123565D01*
G01X3452498Y-3126613D01*
G01X3455546Y-3129661D01*
G01X3458848Y-3136011D01*
G01X3458848Y-3142107D01*
G01X3455546Y-3148203D01*
G01X3452498Y-3151251D01*
G01X3443354Y-3154553D01*
G01X3415414Y-3154553D01*
G01X3437004Y-3154553D02*
G01X3458848Y-3188589D01*
G01X3492122Y-3139059D02*
G01X3492122Y-3136011D01*
G01X3495170Y-3129661D01*
G01X3498218Y-3126613D01*
G01X3504314Y-3123565D01*
G01X3516760Y-3123565D01*
G01X3523110Y-3126613D01*
G01X3526158Y-3129661D01*
G01X3529206Y-3136011D01*
G01X3529206Y-3142107D01*
G01X3526158Y-3148203D01*
G01X3519808Y-3157601D01*
G01X3489074Y-3188589D01*
G01X3532254Y-3188589D01*
G01X5023165Y-4029072D02*
G01X5088189Y-4029072D01*
G01X5023165Y-4029072D02*
G01X5023165Y-4001132D01*
G01X5026213Y-3991988D01*
G01X5029261Y-3988940D01*
G01X5035611Y-3985638D01*
G01X5041707Y-3985638D01*
G01X5047803Y-3988940D01*
G01X5050851Y-3991988D01*
G01X5054153Y-4001132D01*
G01X5054153Y-4029072D01*
G01X5054153Y-4007482D02*
G01X5088189Y-3985638D01*
G01X5023165Y-3949316D02*
G01X5023165Y-3915280D01*
G01X5047803Y-3933822D01*
G01X5047803Y-3924678D01*
G01X5050851Y-3918328D01*
G01X5054153Y-3915280D01*
G01X5063297Y-3912232D01*
G01X5069647Y-3912232D01*
G01X5078791Y-3915280D01*
G01X5085141Y-3921376D01*
G01X5088189Y-3930774D01*
G01X5088189Y-3940172D01*
G01X5085141Y-3949316D01*
G01X5081839Y-3952364D01*
G01X5075743Y-3955412D01*
G01X4149728Y-6051865D02*
G01X4149728Y-6116889D01*
G01X4149728Y-6051865D02*
G01X4177668Y-6051865D01*
G01X4186812Y-6054913D01*
G01X4189860Y-6057961D01*
G01X4193162Y-6064311D01*
G01X4193162Y-6070407D01*
G01X4189860Y-6076503D01*
G01X4186812Y-6079551D01*
G01X4177668Y-6082853D01*
G01X4149728Y-6082853D01*
G01X4171318Y-6082853D02*
G01X4193162Y-6116889D01*
G01X4254122Y-6051865D02*
G01X4223388Y-6095045D01*
G01X4269616Y-6095045D01*
G01X4254122Y-6051865D02*
G01X4254122Y-6116889D01*
G01X5440680Y-4056123D02*
G01X5440680Y-4121147D01*
G01X5440680Y-4056123D02*
G01X5468620Y-4056123D01*
G01X5477764Y-4059171D01*
G01X5480812Y-4062219D01*
G01X5484114Y-4068569D01*
G01X5484114Y-4074665D01*
G01X5480812Y-4080761D01*
G01X5477764Y-4083809D01*
G01X5468620Y-4087111D01*
G01X5440680Y-4087111D01*
G01X5462270Y-4087111D02*
G01X5484114Y-4121147D01*
G01X5551424Y-4056123D02*
G01X5520436Y-4056123D01*
G01X5517388Y-4083809D01*
G01X5520436Y-4080761D01*
G01X5529580Y-4077713D01*
G01X5538978Y-4077713D01*
G01X5548376Y-4080761D01*
G01X5554472Y-4087111D01*
G01X5557520Y-4096255D01*
G01X5557520Y-4102605D01*
G01X5554472Y-4111749D01*
G01X5548376Y-4118099D01*
G01X5538978Y-4121147D01*
G01X5529580Y-4121147D01*
G01X5520436Y-4118099D01*
G01X5517388Y-4114797D01*
G01X5514340Y-4108701D01*
G01X2755014Y-5333365D02*
G01X2755014Y-5398389D01*
G01X2755014Y-5333365D02*
G01X2782954Y-5333365D01*
G01X2792098Y-5336413D01*
G01X2795146Y-5339461D01*
G01X2798448Y-5345811D01*
G01X2798448Y-5351907D01*
G01X2795146Y-5358003D01*
G01X2792098Y-5361051D01*
G01X2782954Y-5364353D01*
G01X2755014Y-5364353D01*
G01X2776604Y-5364353D02*
G01X2798448Y-5398389D01*
G01X2865758Y-5342509D02*
G01X2862710Y-5336413D01*
G01X2853312Y-5333365D01*
G01X2847216Y-5333365D01*
G01X2837818Y-5336413D01*
G01X2831722Y-5345811D01*
G01X2828674Y-5361051D01*
G01X2828674Y-5376545D01*
G01X2831722Y-5388991D01*
G01X2837818Y-5395341D01*
G01X2847216Y-5398389D01*
G01X2850264Y-5398389D01*
G01X2859408Y-5395341D01*
G01X2865758Y-5388991D01*
G01X2868806Y-5379847D01*
G01X2868806Y-5376545D01*
G01X2865758Y-5367401D01*
G01X2859408Y-5361051D01*
G01X2850264Y-5358003D01*
G01X2847216Y-5358003D01*
G01X2837818Y-5361051D01*
G01X2831722Y-5367401D01*
G01X2828674Y-5376545D01*
G01X4801235Y-4698114D02*
G01X4736211Y-4698114D01*
G01X4801235Y-4698114D02*
G01X4801235Y-4726054D01*
G01X4798187Y-4735198D01*
G01X4795139Y-4738246D01*
G01X4788789Y-4741548D01*
G01X4782693Y-4741548D01*
G01X4776597Y-4738246D01*
G01X4773549Y-4735198D01*
G01X4770247Y-4726054D01*
G01X4770247Y-4698114D01*
G01X4770247Y-4719704D02*
G01X4736211Y-4741548D01*
G01X4801235Y-4814954D02*
G01X4736211Y-4783966D01*
G01X4801235Y-4771774D02*
G01X4801235Y-4814954D01*
G01X5065916Y-3151289D02*
G01X5065916Y-3086265D01*
G01X5065916Y-3151289D02*
G01X5037976Y-3151289D01*
G01X5028832Y-3148241D01*
G01X5025784Y-3145193D01*
G01X5022482Y-3138843D01*
G01X5022482Y-3132747D01*
G01X5025784Y-3126651D01*
G01X5028832Y-3123603D01*
G01X5037976Y-3120301D01*
G01X5065916Y-3120301D01*
G01X5044326Y-3120301D02*
G01X5022482Y-3086265D01*
G01X4977016Y-3151289D02*
G01X4986160Y-3148241D01*
G01X4989208Y-3142145D01*
G01X4989208Y-3135795D01*
G01X4986160Y-3129699D01*
G01X4980064Y-3126651D01*
G01X4967618Y-3123603D01*
G01X4958220Y-3120301D01*
G01X4952124Y-3114205D01*
G01X4949076Y-3108109D01*
G01X4949076Y-3098711D01*
G01X4952124Y-3092615D01*
G01X4955172Y-3089313D01*
G01X4964570Y-3086265D01*
G01X4977016Y-3086265D01*
G01X4986160Y-3089313D01*
G01X4989208Y-3092615D01*
G01X4992256Y-3098711D01*
G01X4992256Y-3108109D01*
G01X4989208Y-3114205D01*
G01X4983112Y-3120301D01*
G01X4973714Y-3123603D01*
G01X4961522Y-3126651D01*
G01X4955172Y-3129699D01*
G01X4952124Y-3135795D01*
G01X4952124Y-3142145D01*
G01X4955172Y-3148241D01*
G01X4964570Y-3151289D01*
G01X4977016Y-3151289D01*
G01X2727328Y-4921565D02*
G01X2727328Y-4986589D01*
G01X2727328Y-4921565D02*
G01X2755268Y-4921565D01*
G01X2764412Y-4924613D01*
G01X2767460Y-4927661D01*
G01X2770762Y-4934011D01*
G01X2770762Y-4940107D01*
G01X2767460Y-4946203D01*
G01X2764412Y-4949251D01*
G01X2755268Y-4952553D01*
G01X2727328Y-4952553D01*
G01X2748918Y-4952553D02*
G01X2770762Y-4986589D01*
G01X2841120Y-4943155D02*
G01X2838072Y-4952553D01*
G01X2831722Y-4958649D01*
G01X2822578Y-4961697D01*
G01X2819530Y-4961697D01*
G01X2810132Y-4958649D01*
G01X2804036Y-4952553D01*
G01X2800988Y-4943155D01*
G01X2800988Y-4940107D01*
G01X2804036Y-4930709D01*
G01X2810132Y-4924613D01*
G01X2819530Y-4921565D01*
G01X2822578Y-4921565D01*
G01X2831722Y-4924613D01*
G01X2838072Y-4930709D01*
G01X2841120Y-4943155D01*
G01X2841120Y-4958649D01*
G01X2838072Y-4974143D01*
G01X2831722Y-4983541D01*
G01X2822578Y-4986589D01*
G01X2816228Y-4986589D01*
G01X2807084Y-4983541D01*
G01X2804036Y-4977191D01*
G01X2856865Y-4395086D02*
G01X2921889Y-4395086D01*
G01X2856865Y-4395086D02*
G01X2856865Y-4367146D01*
G01X2859913Y-4358002D01*
G01X2862961Y-4354954D01*
G01X2869311Y-4351652D01*
G01X2875407Y-4351652D01*
G01X2881503Y-4354954D01*
G01X2884551Y-4358002D01*
G01X2887853Y-4367146D01*
G01X2887853Y-4395086D01*
G01X2887853Y-4373496D02*
G01X2921889Y-4351652D01*
G01X2869311Y-4321426D02*
G01X2866009Y-4315330D01*
G01X2856865Y-4306186D01*
G01X2921889Y-4306186D01*
G01X2856865Y-4257418D02*
G01X2859913Y-4266816D01*
G01X2869311Y-4272912D01*
G01X2884551Y-4275960D01*
G01X2893949Y-4275960D01*
G01X2909443Y-4272912D01*
G01X2918841Y-4266816D01*
G01X2921889Y-4257418D01*
G01X2921889Y-4251322D01*
G01X2918841Y-4241924D01*
G01X2909443Y-4235828D01*
G01X2893949Y-4232780D01*
G01X2884551Y-4232780D01*
G01X2869311Y-4235828D01*
G01X2859913Y-4241924D01*
G01X2856865Y-4251322D01*
G01X2856865Y-4257418D01*
G01X1802514Y-2996565D02*
G01X1802514Y-3061589D01*
G01X1802514Y-2996565D02*
G01X1830454Y-2996565D01*
G01X1839598Y-2999613D01*
G01X1842646Y-3002661D01*
G01X1845948Y-3009011D01*
G01X1845948Y-3015107D01*
G01X1842646Y-3021203D01*
G01X1839598Y-3024251D01*
G01X1830454Y-3027553D01*
G01X1802514Y-3027553D01*
G01X1824104Y-3027553D02*
G01X1845948Y-3061589D01*
G01X1876174Y-3009011D02*
G01X1882270Y-3005709D01*
G01X1891414Y-2996565D01*
G01X1891414Y-3061589D01*
G01X1921640Y-3009011D02*
G01X1927736Y-3005709D01*
G01X1936880Y-2996565D01*
G01X1936880Y-3061589D01*
G01X7214934Y-2003716D02*
G01X7149910Y-2003716D01*
G01X7214934Y-2003716D02*
G01X7214934Y-2031656D01*
G01X7211886Y-2040800D01*
G01X7208838Y-2043848D01*
G01X7202488Y-2047150D01*
G01X7196392Y-2047150D01*
G01X7190296Y-2043848D01*
G01X7187248Y-2040800D01*
G01X7183946Y-2031656D01*
G01X7183946Y-2003716D01*
G01X7183946Y-2025306D02*
G01X7149910Y-2047150D01*
G01X7202488Y-2077376D02*
G01X7205790Y-2083472D01*
G01X7214934Y-2092616D01*
G01X7149910Y-2092616D01*
G01X7199440Y-2125890D02*
G01X7202488Y-2125890D01*
G01X7208838Y-2128938D01*
G01X7211886Y-2131986D01*
G01X7214934Y-2138082D01*
G01X7214934Y-2150528D01*
G01X7211886Y-2156878D01*
G01X7208838Y-2159926D01*
G01X7202488Y-2162974D01*
G01X7196392Y-2162974D01*
G01X7190296Y-2159926D01*
G01X7180898Y-2153576D01*
G01X7149910Y-2122842D01*
G01X7149910Y-2166022D01*
G01X3482809Y-3573716D02*
G01X3482809Y-3620198D01*
G01X3485857Y-3629342D01*
G01X3492207Y-3635692D01*
G01X3501351Y-3638740D01*
G01X3507701Y-3638740D01*
G01X3516845Y-3635692D01*
G01X3522941Y-3629342D01*
G01X3526243Y-3620198D01*
G01X3526243Y-3573716D01*
G01X3556469Y-3586162D02*
G01X3562565Y-3582860D01*
G01X3571709Y-3573716D01*
G01X3571709Y-3638740D01*
G01X4724611Y-5846735D02*
G01X4771093Y-5846735D01*
G01X4780237Y-5843687D01*
G01X4786587Y-5837337D01*
G01X4789635Y-5828193D01*
G01X4789635Y-5821843D01*
G01X4786587Y-5812699D01*
G01X4780237Y-5806603D01*
G01X4771093Y-5803301D01*
G01X4724611Y-5803301D01*
G01X4740105Y-5770027D02*
G01X4737057Y-5770027D01*
G01X4730707Y-5766979D01*
G01X4727659Y-5763931D01*
G01X4724611Y-5757835D01*
G01X4724611Y-5745389D01*
G01X4727659Y-5739039D01*
G01X4730707Y-5735991D01*
G01X4737057Y-5732943D01*
G01X4743153Y-5732943D01*
G01X4749249Y-5735991D01*
G01X4758647Y-5742341D01*
G01X4789635Y-5773075D01*
G01X4789635Y-5729895D01*
G04 Text End*

G04 PolygonModel Start*
G54D11*
G01X2794000Y-4449600D02*
G01X2794000Y-4719800D01*
G01X3302000Y-4719800D02*
G01X3302000Y-4449600D01*
G01X3272000Y-4749800D02*
G01X2824000Y-4749800D01*
G01X2824000Y-4419600D02*
G01X3272000Y-4419600D01*
G01X2824000Y-4419600D02*
G03X2794000Y-4449572I1349J-31350D01*
G01X3272000Y-4749800D02*
G03X3302000Y-4719828I-1349J31350D01*
G01X3302000Y-4449600D02*
G03X3272028Y-4419600I-31350J-1349D01*
G01X2794000Y-4719800D02*
G03X2823972Y-4749800I31350J1349D01*
G01X5930900Y-2184400D02*
G01X5930900Y-2286000D01*
G01X6007100Y-2235200D02*
G01X5854700Y-2235200D01*
G36*
G01X6286500Y-2997200D02*
G01X6083300Y-3124200D01*
G01X5981700Y-3149600D01*
G01X5829300Y-3124200D01*
G01X5676900Y-3073400D01*
G01X5575300Y-2997200D01*
G01X6286500Y-2997200D01*
G37*
G54D12*
G01X4000500Y-5168900D02*
G01X4254500Y-5168900D01*
G54D11*
G01X3987495Y-5505907D02*
G01X3987495Y-5085918D01*
G01X4267505Y-5085918D01*
G01X4267505Y-5505907D01*
G01X3987495Y-5505907D01*
G01X3189300Y-2666500D02*
G01X3189300Y-2742700D01*
G01X3150900Y-2704300D02*
G01X3230900Y-2704300D01*
G01X3543300Y-2743200D02*
G01X3543300Y-2362200D01*
G01X3543299Y-2743200D02*
G02X3543299Y-2362200I-254000J190500D01*
G01X2508199Y-6430848D02*
G01X2108200Y-6430848D01*
G01X2108200Y-6430848D02*
G01X1728191Y-6430848D01*
G01X1728191Y-6430848D02*
G01X1728191Y-5430825D01*
G01X1728191Y-5430825D02*
G01X2108200Y-5430825D01*
G01X2108200Y-5430825D02*
G01X2508199Y-5430825D01*
G01X2508199Y-5430825D02*
G01X2508199Y-6430848D01*
G01X1728191Y-5580837D02*
G01X1858188Y-5580837D01*
G01X1858188Y-5580837D02*
G01X1858188Y-5780837D01*
G01X1858188Y-5780837D02*
G01X1728191Y-5780837D01*
G01X1728191Y-6080836D02*
G01X1858188Y-6080836D01*
G01X1858188Y-6080836D02*
G01X1858188Y-6280836D01*
G01X1858188Y-6280836D02*
G01X1728191Y-6280836D01*
G36*
G01X1798201Y-5650901D02*
G01X1828201Y-5670901D01*
G01X1798201Y-5700900D01*
G01X1798201Y-5650901D01*
G37*
G36*
G01X1798201Y-6151027D02*
G01X1828201Y-6171027D01*
G01X1798201Y-6201026D01*
G01X1798201Y-6151027D01*
G37*
G01X2482799Y-4944948D02*
G01X2082800Y-4944948D01*
G01X2082800Y-4944948D02*
G01X1702791Y-4944948D01*
G01X1702791Y-4944948D02*
G01X1702791Y-3944925D01*
G01X1702791Y-3944925D02*
G01X2082800Y-3944925D01*
G01X2082800Y-3944925D02*
G01X2482799Y-3944925D01*
G01X2482799Y-3944925D02*
G01X2482799Y-4944948D01*
G01X1702791Y-4094937D02*
G01X1832788Y-4094937D01*
G01X1832788Y-4094937D02*
G01X1832788Y-4294937D01*
G01X1832788Y-4294937D02*
G01X1702791Y-4294937D01*
G01X1702791Y-4594936D02*
G01X1832788Y-4594936D01*
G01X1832788Y-4594936D02*
G01X1832788Y-4794936D01*
G01X1832788Y-4794936D02*
G01X1702791Y-4794936D01*
G36*
G01X1772801Y-4165001D02*
G01X1802801Y-4185001D01*
G01X1772801Y-4215000D01*
G01X1772801Y-4165001D01*
G37*
G36*
G01X1772801Y-4665127D02*
G01X1802801Y-4685127D01*
G01X1772801Y-4715126D01*
G01X1772801Y-4665127D01*
G37*
G01X1608252Y-2774899D02*
G01X1608252Y-2374900D01*
G01X1608252Y-2374900D02*
G01X1608252Y-1994891D01*
G01X1608252Y-1994891D02*
G01X2608275Y-1994891D01*
G01X2608275Y-1994891D02*
G01X2608275Y-2374900D01*
G01X2608275Y-2374900D02*
G01X2608275Y-2774899D01*
G01X2608275Y-2774899D02*
G01X1608252Y-2774899D01*
G01X2458263Y-1994891D02*
G01X2458263Y-2124888D01*
G01X2458263Y-2124888D02*
G01X2258263Y-2124888D01*
G01X2258263Y-2124888D02*
G01X2258263Y-1994891D01*
G01X1958264Y-1994891D02*
G01X1958264Y-2124888D01*
G01X1958264Y-2124888D02*
G01X1758264Y-2124888D01*
G01X1758264Y-2124888D02*
G01X1758264Y-1994891D01*
G36*
G01X2388199Y-2064901D02*
G01X2368199Y-2094901D01*
G01X2338200Y-2064901D01*
G01X2388199Y-2064901D01*
G37*
G36*
G01X1888073Y-2064901D02*
G01X1868073Y-2094901D01*
G01X1838074Y-2064901D01*
G01X1888073Y-2064901D01*
G37*
G01X2830101Y-6423591D02*
G01X3850099Y-6423591D01*
G54D13*
G01X3594100Y-6043092D02*
G03X3593973Y-6003092I-127J20000D01*
G03X3593846Y-6043092I0J-20000D01*
G54D11*
G01X3850107Y-6103188D02*
G01X3850107Y-6553200D01*
G01X2830119Y-6553200D01*
G01X2830119Y-6103188D01*
G01X3850107Y-6103188D01*
G01X4729102Y-4386699D02*
G01X4729099Y-3766701D01*
G01X4999098Y-4386699D02*
G01X4999101Y-3766701D01*
G01X4999098Y-3766701D02*
G01X4729099Y-3766701D01*
G01X4999101Y-4386699D02*
G01X4729102Y-4386699D01*
G01X3677801Y-3243202D02*
G01X4297799Y-3243199D01*
G01X3677801Y-3513198D02*
G01X4297799Y-3513201D01*
G01X4297799Y-3513198D02*
G01X4297799Y-3243199D01*
G01X3677801Y-3513201D02*
G01X3677801Y-3243202D01*
G01X5257800Y-3873579D02*
G01X5257800Y-3766701D01*
G01X5258204Y-3116699D02*
G01X5258204Y-3009821D01*
G01X5372801Y-3766701D02*
G01X5142799Y-3766701D01*
G01X5142799Y-3766701D02*
G01X5142799Y-3116699D01*
G01X5145801Y-3116699D02*
G01X5369799Y-3116699D01*
G01X5372801Y-3116699D02*
G01X5372801Y-3766701D01*
G01X4305221Y-6286500D02*
G01X4412099Y-6286500D01*
G01X5062101Y-6286904D02*
G01X5168979Y-6286904D01*
G01X4412099Y-6401501D02*
G01X4412099Y-6171499D01*
G01X4412099Y-6171499D02*
G01X5062101Y-6171499D01*
G01X5062101Y-6174501D02*
G01X5062101Y-6398499D01*
G01X5062101Y-6401501D02*
G01X4412099Y-6401501D01*
G01X6694797Y-4684649D02*
G01X7394799Y-4684649D01*
G01X7394799Y-4684649D02*
G01X7394799Y-5270497D01*
G01X7394799Y-5270497D02*
G01X6694797Y-5270497D01*
G01X7394799Y-4724397D02*
G01X9194800Y-4724397D01*
G01X7394799Y-5234371D02*
G01X9194800Y-5234371D01*
G01X6578600Y-4470397D02*
G01X6692900Y-4470397D01*
G01X9194800Y-4724397D02*
G01X9194800Y-5234371D01*
G01X6692900Y-4470397D02*
G01X6692900Y-5482968D01*
G01X6692900Y-5486397D02*
G01X6578600Y-5486397D01*
G01X5448300Y-5778497D02*
G01X6578600Y-5778497D01*
G01X6578600Y-4178297D02*
G01X5448300Y-4178297D01*
G01X5448300Y-4178297D02*
G01X5448300Y-5778398D01*
G01X6578600Y-4178297D02*
G01X6578600Y-5778299D01*
G01X3017401Y-5453002D02*
G01X3637399Y-5452999D01*
G01X3017401Y-5722998D02*
G01X3637399Y-5723001D01*
G01X3637399Y-5722998D02*
G01X3637399Y-5452999D01*
G01X3017401Y-5723001D02*
G01X3017401Y-5453002D01*
G01X4681598Y-4960501D02*
G01X4681601Y-5580499D01*
G01X4411602Y-4960501D02*
G01X4411599Y-5580499D01*
G01X4411602Y-5580499D02*
G01X4681601Y-5580499D01*
G01X4411599Y-4960501D02*
G01X4681598Y-4960501D01*
G01X4270845Y-2381669D02*
G01X4270845Y-2251672D01*
G01X4270845Y-2251672D02*
G01X5060836Y-2251672D01*
G01X5060836Y-2251672D02*
G01X5060836Y-2841638D01*
G01X5060836Y-2841638D02*
G01X4870818Y-3031655D01*
G01X4870818Y-3031655D02*
G01X4470819Y-3031655D01*
G01X4470819Y-3031655D02*
G01X4270845Y-2831681D01*
G01X4270845Y-2831681D02*
G01X4270845Y-2381669D01*
G01X4910823Y-2741663D02*
G01X4400842Y-2741663D01*
G01X4400842Y-2741663D02*
G01X4400842Y-2591651D01*
G01X4400842Y-2591651D02*
G01X4910823Y-2591651D01*
G01X4910823Y-2591651D02*
G01X4910823Y-2741663D01*
G01X2882821Y-5156200D02*
G01X2989699Y-5156200D01*
G01X3639701Y-5156604D02*
G01X3746579Y-5156604D01*
G01X2989699Y-5271201D02*
G01X2989699Y-5041199D01*
G01X2989699Y-5041199D02*
G01X3639701Y-5041199D01*
G01X3639701Y-5044201D02*
G01X3639701Y-5268199D01*
G01X3639701Y-5271201D02*
G01X2989699Y-5271201D01*
G01X2976502Y-4132699D02*
G01X2976499Y-3512701D01*
G01X3246498Y-4132699D02*
G01X3246501Y-3512701D01*
G01X3246498Y-3512701D02*
G01X2976499Y-3512701D01*
G01X3246501Y-4132699D02*
G01X2976502Y-4132699D01*
G01X2064901Y-3116202D02*
G01X2684899Y-3116199D01*
G01X2064901Y-3386198D02*
G01X2684899Y-3386201D01*
G01X2684899Y-3386198D02*
G01X2684899Y-3116199D01*
G01X2064901Y-3386201D02*
G01X2064901Y-3116202D01*
G01X7095300Y-2311103D02*
G01X7095300Y-3861054D01*
G01X7095300Y-3861054D02*
G01X6595301Y-3861054D01*
G01X7095300Y-2311103D02*
G01X6595301Y-2311100D01*
G01X6595301Y-2311100D02*
G01X6595301Y-3861054D01*
G54D10*
G01X3513379Y-4419790D02*
G01X3513379Y-3886009D01*
G01X3513379Y-3886009D02*
G01X4487621Y-3886009D01*
G01X4487621Y-3886009D02*
G01X4487621Y-4419790D01*
G01X4487621Y-4419790D02*
G01X3513379Y-4419790D01*
G01X3513379Y-4073525D02*
G02X3513379Y-4232275I0J-79375D01*
G54D11*
G01X4967300Y-5572100D02*
G01X4967300Y-5172100D01*
G01X4967300Y-5172100D02*
G01X5167300Y-5172100D01*
G01X5167300Y-5172100D02*
G01X5167300Y-5572100D01*
G01X5167300Y-5572100D02*
G01X4977300Y-5572100D01*
G36*
G01X4877300Y-5852099D02*
G01X4877300Y-5722099D01*
G01X4897300Y-5722099D01*
G01X4897300Y-5852099D01*
G01X4887300Y-5852099D01*
G01X4877300Y-5852099D01*
G37*
G36*
G01X4964626Y-5796750D02*
G01X4834626Y-5796750D01*
G01X4834626Y-5776750D01*
G01X4964626Y-5776750D01*
G01X4964626Y-5786750D01*
G01X4964626Y-5796750D01*
G37*
G36*
G01X4880470Y-5041826D02*
G01X4880470Y-4911827D01*
G01X4900470Y-4911827D01*
G01X4900470Y-5041826D01*
G01X4890470Y-5041826D01*
G01X4880470Y-5041826D01*
G37*
G36*
G01X4967300Y-5232100D02*
G01X5167300Y-5232100D01*
G01X5167300Y-5272100D01*
G01X4967300Y-5272100D01*
G01X4967300Y-5232100D01*
G37*

G04 Circle Start*
G01X5430901Y-2641600D02*
G03X6430899Y-2641600I499999J0D01*
G03X5430901Y-2641600I-499999J0D01*
G01X3035300Y-2552700D02*
G03X3543300Y-2552700I254000J0D01*
G03X3035300Y-2552700I-254000J0D01*
G54D13*
G01X4980851Y-2191601D02*
G03X5020831Y-2191601I19990J0D01*
G03X4980851Y-2191601I-19990J0D01*
G54D14*
G01X3490189Y-4533900D02*
G03X3520211Y-4533900I15011J0D01*
G03X3490189Y-4533900I-15011J0D01*
G04 Circle End*

M02*

